<svg width="39" height="39" viewBox="0 0 39 39" fill="none" xmlns="http://www.w3.org/2000/svg"><path d="M28.364 30.137a1.773 1.773 0 0 0 1.772-1.772V10.64a1.773 1.773 0 0 0-3.545 0v17.725a1.772 1.772 0 0 0 1.773 1.772Zm1.772-23.042h1.773v1.772a1.773 1.773 0 0 0 3.546 0V7.095h1.772a1.773 1.773 0 1 0 0-3.545h-1.772V1.777a1.773 1.773 0 0 0-3.546 0V3.55h-1.773a1.773 1.773 0 0 0 0 3.545Zm6.382 7.09a1.772 1.772 0 0 0-1.383 2.091 15.951 15.951 0 0 1-17.94 19.002A15.955 15.955 0 0 1 5.462 11.927a15.954 15.954 0 0 1 17.263-8.058 1.808 1.808 0 0 0 .71-3.545A19.147 19.147 0 0 0 19.5.004 19.501 19.501 0 0 0 .375 23.307a19.497 19.497 0 0 0 15.32 15.32A19.502 19.502 0 0 0 38.61 15.602a1.772 1.772 0 0 0-2.092-1.418Zm-20.564 7.09h1.773a5.318 5.318 0 0 0 5.318-5.318v-1.772a5.317 5.317 0 0 0-5.318-5.318h-1.773a5.319 5.319 0 0 0-5.318 5.318 1.772 1.772 0 0 0 3.546 0 1.773 1.773 0 0 1 1.772-1.773h1.773a1.773 1.773 0 0 1 1.773 1.773v1.772a1.772 1.772 0 0 1-1.773 1.773h-1.773a5.318 5.318 0 0 0-5.318 5.317v5.318a1.772 1.772 0 0 0 1.773 1.772h8.864a1.773 1.773 0 1 0 0-3.545h-7.091v-3.545a1.772 1.772 0 0 1 1.772-1.772Z" fill="#92268B"/></svg>