<svg width="132" height="118" viewBox="0 0 132 118" fill="none" xmlns="http://www.w3.org/2000/svg"><path d="M95.007 91.149c-15.672 0-28.796-12.624-28.59-28.76.196-15.254 12.794-27.952 28.77-27.885 15.612.067 28.192 12.57 28.449 27.816.269 15.887-12.793 28.897-28.629 28.829Zm-.514-13.594h.388c4.313.045 8.553-2.71 9.534-7.298.556-2.599-.249-4.667-1.855-6.571-1.103-1.309-2.503-2.273-3.93-3.208-1.003-.659-2.06-1.259-2.898-2.136-.485-.506-.29-1.189.386-1.397.265-.083.539-.127.828-.103 1.658.135 2.974.944 3.916 2.227.596.811 1.845.918 2.719.466 1.203-.622 2.294-1.422 3.527-2 1.446-.675 1.485-2.15.708-3.036-.927-1.06-1.942-2.024-3.129-2.762-1.847-1.15-3.813-2.054-6-2.416-1.734-.287-3.461-.447-5.202-.102-3.639.724-6.187 2.672-7.244 6.327-.83 2.868-.217 5.363 1.876 7.497 1.534 1.563 3.468 2.6 5.215 3.884.504.37 1.031.707 1.392 1.23.517.747.143 1.6-.767 1.714-.251.031-.518 0-.77-.045-1.858-.33-3.237-1.42-4.473-2.758-.876-.946-1.622-1.058-2.698-.394a149.165 149.165 0 0 0-3.949 2.538c-.84.555-.94 1.64-.283 2.4.563.652 1.155 1.265 1.832 1.806 3.177 2.547 6.724 4.122 10.877 4.135v.002Z" fill="#18DE8C"/><path d="M10.36 62.57c.082-6.929 2.426-13.191 7.142-18.523 3.974-4.493 8.931-7.487 14.796-8.831 8.05-1.843 15.616-.555 22.557 3.945 3.763 2.44 6.736 5.656 9.01 9.508.2.338.244.626.076 1.015-.83 1.918-1.558 3.886-1.965 5.93-.608 3.046-.904 6.13-.688 9.25.264 3.84 1.115 7.534 2.649 11.067.162.374.101.645-.08.956-2.284 3.904-5.318 7.105-9.118 9.587-3.439 2.246-7.194 3.72-11.26 4.331-4.372.658-8.699.375-12.935-.933C24.21 87.92 19.178 84.196 15.4 78.799c-3.378-4.825-5.004-10.197-5.04-16.227Zm29.9-14.653c-2.077-.183-4.187.375-6.267 1.014-2.725.837-5.048 2.354-7 4.41-1.468 1.545-2.429 3.38-3.032 5.421-.647 2.187-.684 4.388-.215 6.595.47 2.211 1.332 4.247 2.682 6.111 1.566 2.164 3.633 3.658 6.036 4.659 2.657 1.106 5.457 1.466 8.361 1.15 3.894-.424 7.39-1.73 10.372-4.273.644-.55 1.264-1.156 1.62-1.966.342-.775.089-1.56-.617-2.008a209.293 209.293 0 0 1-4.575-2.99c-.722-.486-1.936-.47-2.506.161-.852.943-1.835 1.614-3.077 1.99-2.322.7-4.525.069-6.16-1.566-1.138-1.137-1.635-2.56-1.784-4.096-.192-1.98.53-3.655 2.154-4.814 1.779-1.269 3.81-1.51 5.927-1.013 1.29.303 2.065-.109 2.657-1.273.689-1.352 1.272-2.75 1.975-4.098.546-1.045.432-2.229-1.049-2.713-1.748-.572-3.534-.76-5.5-.702l-.002.001Z" fill="#FFC600"/><path d="M114.385 19.511v.064c.027 1.158.031 1.162-1.028 1.627-1.451.638-2.297 1.712-2.342 3.308-.031 1.159.955 2.318 2.081 2.554 1.213.255 2.278-.322 2.843-1.492.333-.689.54-1.41.588-2.158.037-.594.372-.88.842-1.088a10.856 10.856 0 0 1 3.688-.89c.644-.042 1.294-.01 1.941-.006.499.003.628.182.319.618a84.366 84.366 0 0 0-3.7 5.647l-1.115 1.878c-.23.389-.354.722.075 1.122.322.299.27.77.004 1.127-.244.33-.577.52-1.01.277-.137-.078-.337-.121-.396.047-.185.531-.667.977-.495 1.615.028.102.04.212.037.317-.032 1.16-.316 1.33-1.284.761-3.463-2.038-7.081-3.723-10.989-4.743-2.869-.748-5.795-1.135-8.746-1.368-.718-.057-.786-.171-.512-.826.08-.197.153-.443.311-.555.531-.375.52-.944.632-1.48.062-.296.026-.505-.31-.584-.442-.106-.56-.453-.55-.836.01-.425.24-.794.668-.829.525-.042.556-.354.602-.732.307-2.535.432-5.08.445-7.633.002-.514.04-1.028.033-1.542-.004-.37.189-.422.445-.273 1.876 1.094 3.435 2.503 4.429 4.462.147.287.032.53-.107.785-.421.777-.775 1.578-.838 2.476-.093 1.348.6 2.374 1.812 2.685 1.234.317 2.57-.261 3.105-1.393.64-1.353.562-2.68-.387-3.862-.41-.51-.417-.852-.012-1.377 1.661-2.144 3.514-4.049 6.031-5.215.433-.2.686-.217.969.266 1.319 2.243 1.791 4.697 1.922 7.245l-.001.001ZM37.18 16.968c.049 1.761.208 3.854.423 5.943.04.388.137.64.583.693.454.056.655.414.69.82.036.383-.105.726-.535.84-.294.076-.364.26-.316.531.093.538.039 1.13.596 1.488.067.042.103.136.148.208.588.96.485 1.188-.612 1.268a49.208 49.208 0 0 0-7.165 1.029c-3.072.686-5.997 1.789-8.805 3.2a56.904 56.904 0 0 0-3.801 2.067c-.54.324-.687.261-.839-.362-.065-.267-.12-.567-.06-.825.15-.641-.207-1.114-.45-1.632-.11-.236-.28-.216-.482-.126-.485.217-.801-.068-1.028-.418-.234-.36-.183-.785.13-1.063.321-.283.28-.505.1-.827-.988-1.775-1.998-3.534-3.196-5.184-.628-.864-1.203-1.766-1.797-2.655-.222-.33-.123-.517.281-.536 2.074-.092 4.094.096 5.98 1.064.343.177.512.402.55.787.08.836.282 1.639.68 2.395.663 1.26 1.914 1.789 3.134 1.292 1.313-.535 2.02-1.966 1.64-3.253-.429-1.443-1.388-2.332-2.833-2.708-.292-.076-.451-.15-.454-.487-.022-2.825.422-5.544 1.799-8.058.434-.793.468-.795 1.275-.403 2.59 1.256 4.503 3.252 6.151 5.538.258.357.042.575-.182.832-1.282 1.468-1.155 3.734.265 4.905.95.783 2.002.697 3.009.206.849-.413 1.16-1.208 1.143-2.144-.016-.929-.313-1.774-.788-2.545-.3-.49-.28-.89.004-1.362 1.044-1.736 2.514-3.024 4.234-4.062.38-.23.538-.143.53.313-.016.964-.005 1.93-.005 3.234l.002-.003ZM37.327 104.094c.249-.084.232-.321.29-.513.285-.942.593-1.878.847-2.828.139-.52.502-.605.932-.59.436.013.864.054 1.015.596.27.969.566 1.929.854 2.893.045.154.005.406.224.408.223.001.175-.246.205-.399.224-1.154.468-2.306.655-3.467.088-.55.462-.565.85-.56.403.006.7.18.73.645.03.461-.12.891-.225 1.324-.28 1.165-.613 2.318-.907 3.481-.165.663-.56.939-1.25.934-.669-.005-1.02-.296-1.195-.921-.25-.894-.546-1.776-.986-2.678-.277.858-.55 1.718-.832 2.575-.32.968-.672 1.149-1.665.963-.466-.087-.64-.403-.767-.772-.512-1.502-.83-3.052-1.148-4.601-.096-.466-.016-.817.518-.907.511-.085.929.07 1.043.608.245 1.15.447 2.309.67 3.465.024.117-.02.265.14.342l.002.002ZM17.166 102.121c-.085-3.02 2.398-4.938 5.305-4.098.763.22 1.15.614 1.12 1.141-.03.513-.33.707-.786.466-.449-.235-.909-.394-1.415-.389-1.347.012-2.172.723-2.366 2.066-.15 1.023-.15 2.044.706 2.798.891.782 1.92.773 2.97.331.3-.126.637-.354.834.06.178.373.205.792-.209 1.096-.284.209-.602.313-.94.401-2.157.56-5.171-.327-5.22-3.87v-.002ZM56.927 97.866c.526-.02 1.03.092 1.526.248.293.09.548.248.74.493.244.311.233.633.01.946-.238.337-.49.115-.733 0-1.263-.6-2.534-.367-3.265.599-.682.901-.642 2.883.075 3.76.694.848 1.963 1.066 3.207.564.29-.117.638-.445.848.092.175.448.097.828-.363 1.097-2.294 1.346-5.38.006-5.912-2.577-.413-1.997.245-3.735 1.768-4.668.644-.393 1.358-.523 2.097-.554h.002ZM114.536 99.606c1.935.016 3.149 1.295 3.131 3.3-.017 1.984-1.311 3.2-3.388 3.183-1.756-.014-3.02-1.379-3.001-3.243.02-2.016 1.266-3.255 3.258-3.24Zm-1.566 3.273c.008 1.071.435 1.751 1.183 1.888.877.163 1.596-.355 1.77-1.271.242-1.276-.249-2.39-1.124-2.547-.02-.004-.042-.003-.064-.007-1.144-.157-1.775.537-1.765 1.937ZM59.577 102.846c.022-2.072 1.234-3.245 3.329-3.22 1.882.022 3.038 1.332 3.031 3.398-.005 1.41-.975 3.13-3.305 3.077-1.828-.041-3.075-1.341-3.055-3.255Zm4.686-.05a2.482 2.482 0 0 0-.22-1.06c-.216-.488-.579-.771-1.138-.814-.565-.044-1.016.121-1.344.59-.463.662-.428 2.109.063 2.756.235.309.551.47.933.512 1.04.113 1.706-.635 1.705-1.983l.001-.001ZM83.309 101.943c-.069-2.978 2.545-4.74 5.482-3.837.308.095.597.265.776.548.187.295.214.607-.02.895-.242.298-.49.136-.748.006-1.109-.558-2.297-.414-3.048.361-.823.851-.944 2.798-.238 3.854.609.913 2.001 1.224 3.28.719.34-.134.694-.401.907.131.192.478-.01.814-.446 1.064-2.468 1.414-5.69-.238-5.91-3.037-.017-.234-.026-.47-.039-.706l.004.002ZM95.62 103.186c0 .428-.033.859.01 1.284.068.697-.276 1.098-.886 1.314-1.107.394-2.242.437-3.36.09-.904-.281-1.326-.978-1.278-1.927.043-.824.561-1.419 1.491-1.609.609-.123 1.238-.158 1.859-.238.2-.026.472.058.54-.226.069-.29-.027-.548-.276-.739-.29-.221-.636-.265-.98-.267a4.178 4.178 0 0 0-1.46.234c-.239.086-.516.238-.682-.077-.175-.327-.157-.67.144-.935a1.1 1.1 0 0 1 .392-.22c1.076-.327 2.156-.415 3.227.011.793.316 1.25.886 1.252 1.763.003.514 0 1.028 0 1.542h.008Zm-2.894 1.638c1.27-.011 1.408-.168 1.298-1.24-.02-.224-.078-.37-.334-.366-.519.007-1.032.044-1.526.223-.3.108-.442.314-.45.631-.01.354.185.573.488.676.219.075.465.069.524.076ZM69.4 103.142c0-.642.005-1.284-.001-1.927-.005-.416.129-.754.501-.972 1.292-.75 2.646-.86 4.031-.32.874.342 1.174 1.086 1.19 1.957.02 1.113.003 2.226.012 3.339.003.404.031.753-.572.747-.742-.007-1.03-.133-1.063-.714-.038-.662-.014-1.327-.017-1.99 0-.343-.006-.685 0-1.028.011-.488-.017-.979-.534-1.207-.54-.237-1.1-.15-1.633.07-.305.126-.246.42-.248.671-.004 1.155-.026 2.312.006 3.467.013.461-.05.724-.597.731-.753.009-1.035-.125-1.063-.706-.034-.705-.008-1.412-.008-2.119H69.4v.001ZM31.484 99.625c1.945.001 3.17 1.292 3.18 3.349.007 1.819-1.301 3.135-3.127 3.14-1.974.006-3.261-1.255-3.263-3.195-.001-2.058 1.205-3.296 3.21-3.294Zm1.462 3.216c.016-1.222-.588-1.97-1.56-1.928-.828.034-1.36.622-1.45 1.601-.105 1.159.37 2.089 1.157 2.254.085.018.172.022.257.024 1.045.029 1.58-.624 1.596-1.95v-.001ZM44.516 103.094c0-.642.004-1.285-.002-1.928-.003-.45.185-.772.584-.993 1.179-.649 2.417-.748 3.685-.358.923.284 1.428.961 1.458 1.91.039 1.263.001 2.527.02 3.791.006.367-.193.438-.48.44-.444.003-.957.122-1.113-.484-.068-.264-.05-.551-.053-.828-.008-.878-.002-1.757-.013-2.635-.005-.425-.095-.845-.558-.995-.568-.183-1.151-.177-1.683.141-.218.13-.16.378-.162.59-.005 1.178-.027 2.357-.004 3.534.01.437-.066.702-.575.69-.484-.01-1.023.04-1.063-.628-.044-.747-.01-1.498-.01-2.248h-.034l.003.001ZM104.841 103.124c0-.643.018-1.286-.007-1.928-.016-.464.183-.79.568-1.001 1.239-.683 2.544-.794 3.868-.312.795.29 1.25.907 1.266 1.77.024 1.199.004 2.399.028 3.598.01.437-.01.736-.584.731-.742-.008-1.019-.148-1.033-.737-.024-.942-.006-1.886-.009-2.827-.001-1.317-.613-1.775-1.889-1.43-.383.104-.574.292-.565.721.024 1.178-.004 2.357.012 3.535.007.427 0 .743-.587.734-.721-.012-1.026-.157-1.055-.734-.034-.706-.008-1.413-.008-2.12h-.006.001ZM98.984 99.62c.611-.02 1.206.04 1.74.372.387.241.516.573.313.985-.201.405-.506.177-.781.093-.563-.17-1.13-.288-1.717-.135-.266.069-.473.198-.5.51-.029.335.2.456.453.536.593.188 1.21.313 1.786.543.973.389 1.35 1.28 1.032 2.259-.2.611-.661.946-1.237 1.122a4.698 4.698 0 0 1-2.741 0c-.478-.141-.945-.377-.952-.99-.005-.496.3-.697.745-.472.62.312 1.263.427 1.944.343.347-.043.632-.198.683-.575.054-.403-.237-.571-.562-.673-.349-.11-.705-.191-1.06-.278-1.211-.297-1.798-.941-1.72-1.899.078-.998.858-1.661 2.058-1.74.171-.011.344-.001.516-.001ZM78.63 99.615c.504-.029 1.031.04 1.525.303.237.127.43.279.483.562.105.556-.18.818-.72.635-.537-.182-1.083-.299-1.65-.22-.328.045-.67.13-.706.534-.039.424.327.537.626.617.54.144 1.092.247 1.613.463.734.302 1.124.843 1.128 1.638.003.784-.332 1.383-1.085 1.659-1.154.422-2.314.439-3.44-.12-.283-.139-.483-.359-.506-.697-.034-.53.275-.772.75-.538a3.392 3.392 0 0 0 1.752.357c.401-.026.825-.063.89-.554.067-.488-.313-.656-.71-.768-.496-.14-1.006-.244-1.485-.427-.824-.315-1.19-.838-1.178-1.579.01-.772.493-1.398 1.266-1.689.458-.173.927-.187 1.447-.176ZM24.241 103.133c0-.664.008-1.328-.002-1.992-.007-.455.2-.748.589-.985.854-.52 1.781-.61 2.742-.519.387.036.712.206.768.649.05.402-.058.639-.545.657-1.909.07-1.909.081-1.915 1.97-.003.813-.032 1.629.01 2.44.028.503-.188.655-.631.619-.43-.035-.984.1-1.005-.589-.023-.748-.005-1.499-.005-2.249h-.006v-.001ZM68.328 103.057c0 .749-.004 1.497 0 2.247.004.3.08.642-.388.645-.459.004-.995.149-1.193-.468-.07-.218-.064-.465-.064-.7-.002-1.433.028-2.868-.007-4.302-.013-.526.149-.74.68-.739.537.001.963.121.976.748.018.855.004 1.712.004 2.569h-.008ZM102.133 102.747c0-.75.025-1.501-.009-2.249-.024-.5.108-.775.662-.76.519.016.969.093.978.745.01.578.008 1.156.008 1.735 0 1.007-.03 2.014.007 3.019.019.503-.093.749-.653.738-.715-.014-.975-.177-.987-.789-.015-.813-.003-1.628-.003-2.442h-.003v.003ZM68.429 97.939c.008.523-.353.924-.85.946-.552.025-.973-.348-.989-.874a.918.918 0 0 1 .923-.944.888.888 0 0 1 .916.872ZM102.958 97.086c.544 0 .957.405.943.922-.012.451-.468.879-.944.883-.486.005-.957-.468-.942-.946.014-.479.433-.861.942-.86l.001.001ZM94.49 77.553c-4.15-.012-7.698-1.588-10.876-4.134-.676-.542-1.268-1.155-1.831-1.806-.657-.76-.558-1.844.283-2.4a146.974 146.974 0 0 1 3.948-2.538c1.077-.665 1.822-.552 2.7.394 1.235 1.336 2.614 2.427 4.471 2.758.252.045.518.076.77.045.91-.114 1.285-.967.768-1.715-.361-.524-.891-.86-1.392-1.23-1.746-1.284-3.68-2.32-5.215-3.883-2.094-2.134-2.706-4.628-1.876-7.497 1.057-3.656 3.605-5.604 7.244-6.327 1.74-.346 3.468-.187 5.201.102 2.187.363 4.153 1.266 6.001 2.416 1.187.738 2.202 1.702 3.129 2.761.775.888.736 2.361-.708 3.038-1.233.577-2.325 1.377-3.527 1.999-.874.452-2.123.345-2.72-.467-.943-1.283-2.256-2.091-3.915-2.227-.29-.023-.563.021-.83.103-.673.21-.87.89-.384 1.398.839.877 1.896 1.476 2.898 2.135 1.425.935 2.827 1.901 3.93 3.209 1.605 1.904 2.411 3.97 1.854 6.571-.979 4.587-5.22 7.345-9.533 7.298h-.39v-.002ZM40.262 47.916c1.967-.057 3.752.13 5.5.703 1.482.484 1.595 1.667 1.049 2.713-.703 1.348-1.287 2.746-1.975 4.097-.593 1.165-1.37 1.577-2.657 1.274-2.118-.497-4.148-.256-5.928 1.013-1.623 1.158-2.345 2.833-2.153 4.814.149 1.537.645 2.959 1.784 4.096 1.636 1.633 3.838 2.264 6.16 1.565 1.243-.375 2.226-1.046 3.076-1.989.572-.632 1.785-.648 2.507-.16 1.51 1.017 3.038 2.01 4.575 2.989.705.448.958 1.232.617 2.008-.356.81-.976 1.416-1.62 1.965-2.983 2.543-6.478 3.85-10.372 4.274-2.903.317-5.703-.043-8.361-1.15-2.404-1.001-4.47-2.495-6.037-4.66-1.348-1.863-2.21-3.9-2.681-6.11-.468-2.207-.432-4.407.215-6.595.603-2.04 1.564-3.876 3.032-5.421 1.951-2.056 4.275-3.575 7-4.41 2.08-.64 4.19-1.198 6.267-1.014l.002-.002Z" fill="#E9E8E8"/></svg>